<svg width="21" height="21" viewBox="0 0 21 21" fill="none" xmlns="http://www.w3.org/2000/svg">
<path d="M3.66675 11.9727C3.66675 11.0699 3.86814 10.1774 4.27092 9.29516C4.67369 8.41293 5.18064 7.56932 5.79175 6.76432C6.40286 5.95877 7.06619 5.20182 7.78175 4.49349C8.4973 3.78516 9.16036 3.16016 9.77092 2.61849C9.85425 2.54905 9.94453 2.4971 10.0417 2.46266C10.139 2.42821 10.2362 2.41071 10.3334 2.41016C10.4445 2.41016 10.5451 2.42766 10.6351 2.46266C10.7251 2.49766 10.8051 2.5496 10.8751 2.61849C11.9584 3.57682 13.0384 4.64627 14.1151 5.82682C15.1917 7.00738 15.9937 8.28516 16.5209 9.66016H14.7084C14.3195 8.86849 13.764 8.03155 13.0417 7.14932C12.3195 6.2671 11.4167 5.33321 10.3334 4.34766C8.68064 5.86155 7.43425 7.25738 6.59425 8.53516C5.75425 9.81293 5.33397 10.9588 5.33342 11.9727C5.33342 13.4588 5.80564 14.6915 6.75008 15.671C7.69453 16.6504 8.88897 17.1399 10.3334 17.1393V18.806C8.43064 18.806 6.84369 18.1532 5.57258 16.8477C4.30147 15.5421 3.66619 13.9171 3.66675 11.9727ZM13.2292 18.9518C13.0765 19.0213 12.9201 19.0249 12.7601 18.9627C12.6001 18.9004 12.4856 18.7927 12.4167 18.6393L12.3126 18.4102C12.2015 18.174 12.1215 17.9277 12.0726 17.671C12.0237 17.4143 11.9995 17.1538 12.0001 16.8893C12.0001 16.5838 12.0348 16.2818 12.1042 15.9835C12.1737 15.6852 12.2779 15.3968 12.4167 15.1185C12.5279 14.8824 12.6251 14.6429 12.7084 14.4002C12.7917 14.1574 12.8334 13.9038 12.8334 13.6393C12.8334 13.431 12.809 13.2296 12.7601 13.0352C12.7112 12.8407 12.6454 12.6463 12.5626 12.4518L12.5417 12.4102C12.4723 12.2574 12.4687 12.0977 12.5309 11.931C12.5931 11.7643 12.7009 11.6463 12.8542 11.5768C13.007 11.5074 13.1631 11.504 13.3226 11.5668C13.482 11.6296 13.5967 11.7371 13.6667 11.8893L13.7709 12.0768C13.882 12.3129 13.962 12.5629 14.0109 12.8268C14.0598 13.0907 14.084 13.3615 14.0834 13.6393C14.0834 13.9449 14.0487 14.2435 13.9792 14.5352C13.9098 14.8268 13.8056 15.1115 13.6667 15.3893C13.5556 15.6254 13.4584 15.8685 13.3751 16.1185C13.2917 16.3685 13.2501 16.6254 13.2501 16.8893C13.2501 17.0838 13.2709 17.2749 13.3126 17.4627C13.3542 17.6504 13.4167 17.8343 13.5001 18.0143L13.5417 18.1185C13.6112 18.2713 13.6148 18.431 13.5526 18.5977C13.4904 18.7643 13.3826 18.8824 13.2292 18.9518ZM15.7292 18.9518C15.5765 19.0213 15.4201 19.0249 15.2601 18.9627C15.1001 18.9004 14.9856 18.7927 14.9167 18.6393L14.8126 18.4102C14.7015 18.174 14.6215 17.9277 14.5726 17.671C14.5237 17.4143 14.4995 17.1538 14.5001 16.8893C14.5001 16.5838 14.5348 16.2818 14.6042 15.9835C14.6737 15.6852 14.7779 15.3968 14.9167 15.1185C15.0279 14.8824 15.1251 14.6429 15.2084 14.4002C15.2917 14.1574 15.3334 13.9038 15.3334 13.6393C15.3334 13.431 15.309 13.2296 15.2601 13.0352C15.2112 12.8407 15.1454 12.6463 15.0626 12.4518L15.0417 12.4102C14.9723 12.2574 14.969 12.0977 15.0317 11.931C15.0945 11.7643 15.202 11.6463 15.3542 11.5768C15.507 11.5074 15.6634 11.504 15.8234 11.5668C15.9834 11.6296 16.0979 11.7371 16.1667 11.8893L16.2709 12.0768C16.382 12.3268 16.462 12.5804 16.5109 12.8377C16.5598 13.0949 16.584 13.3621 16.5834 13.6393C16.5834 13.9449 16.5487 14.2435 16.4792 14.5352C16.4098 14.8268 16.3056 15.1115 16.1667 15.3893C16.0556 15.6254 15.9584 15.8685 15.8751 16.1185C15.7917 16.3685 15.7501 16.6254 15.7501 16.8893C15.7501 17.0838 15.7709 17.2749 15.8126 17.4627C15.8542 17.6504 15.9167 17.8343 16.0001 18.0143L16.0417 18.1185C16.1112 18.2713 16.1148 18.431 16.0526 18.5977C15.9904 18.7643 15.8826 18.8824 15.7292 18.9518ZM17.8542 11.5768C18.007 11.5074 18.1634 11.504 18.3234 11.5668C18.4834 11.6296 18.5979 11.7371 18.6667 11.8893L18.7709 12.0768C18.882 12.3129 18.962 12.5629 19.0109 12.8268C19.0598 13.0907 19.084 13.3615 19.0834 13.6393C19.0834 13.9449 19.0487 14.2471 18.9792 14.546C18.9098 14.8449 18.8056 15.1327 18.6667 15.4093C18.5556 15.6454 18.4584 15.8852 18.3751 16.1285C18.2917 16.3718 18.2501 16.6252 18.2501 16.8885C18.2501 17.0829 18.2709 17.274 18.3126 17.4618C18.3542 17.6496 18.4167 17.8335 18.5001 18.0135L18.5417 18.1177C18.5834 18.201 18.6042 18.2843 18.6042 18.3677C18.6042 18.451 18.5904 18.5274 18.5626 18.5968C18.5348 18.6663 18.4931 18.7324 18.4376 18.7952C18.382 18.8579 18.3126 18.9099 18.2292 18.951C18.0765 19.0204 17.9201 19.024 17.7601 18.9618C17.6001 18.8996 17.4856 18.7921 17.4167 18.6393L17.3126 18.4102C17.2015 18.174 17.1215 17.9277 17.0726 17.671C17.0237 17.4143 16.9995 17.1538 17.0001 16.8893C17.0001 16.5838 17.0348 16.2818 17.1042 15.9835C17.1737 15.6852 17.2779 15.3968 17.4167 15.1185C17.5279 14.8824 17.6251 14.6429 17.7084 14.4002C17.7917 14.1574 17.8334 13.9038 17.8334 13.6393C17.8334 13.431 17.809 13.2296 17.7601 13.0352C17.7112 12.8407 17.6454 12.6463 17.5626 12.4518L17.5417 12.4102C17.4723 12.2574 17.469 12.0977 17.5317 11.931C17.5945 11.7643 17.702 11.6463 17.8542 11.5768Z" fill="#171E1D"/>
</svg>
