<svg width="21" height="21" viewBox="0 0 21 21" fill="none" xmlns="http://www.w3.org/2000/svg">
<g clip-path="url(#clip0_4483_15451)">
<path d="M19.0834 9.22266H18.2396L16.0693 4.33984C15.9711 4.11893 15.8109 3.93123 15.6082 3.7995C15.4055 3.66777 15.1689 3.59766 14.9271 3.59766H5.73962C5.49786 3.59766 5.26128 3.66777 5.05855 3.7995C4.85583 3.93123 4.69565 4.11893 4.59744 4.33984L2.42712 9.22266H1.58337C1.41761 9.22266 1.25864 9.2885 1.14143 9.40571C1.02422 9.52292 0.958374 9.6819 0.958374 9.84766C0.958374 10.0134 1.02422 10.1724 1.14143 10.2896C1.25864 10.4068 1.41761 10.4727 1.58337 10.4727H2.20837V16.7227C2.20837 17.0542 2.34007 17.3721 2.57449 17.6065C2.80891 17.841 3.12685 17.9727 3.45837 17.9727H5.33337C5.66489 17.9727 5.98284 17.841 6.21726 17.6065C6.45168 17.3721 6.58337 17.0542 6.58337 16.7227V15.4727H14.0834V16.7227C14.0834 17.0542 14.2151 17.3721 14.4495 17.6065C14.6839 17.841 15.0019 17.9727 15.3334 17.9727H17.2084C17.5399 17.9727 17.8578 17.841 18.0923 17.6065C18.3267 17.3721 18.4584 17.0542 18.4584 16.7227V10.4727H19.0834C19.2491 10.4727 19.4081 10.4068 19.5253 10.2896C19.6425 10.1724 19.7084 10.0134 19.7084 9.84766C19.7084 9.6819 19.6425 9.52292 19.5253 9.40571C19.4081 9.2885 19.2491 9.22266 19.0834 9.22266ZM5.73962 4.84766H14.9271L16.8717 9.22266H3.79509L5.73962 4.84766ZM5.33337 16.7227H3.45837V15.4727H5.33337V16.7227ZM15.3334 16.7227V15.4727H17.2084V16.7227H15.3334ZM17.2084 14.2227H3.45837V10.4727H17.2084V14.2227ZM4.70837 12.3477C4.70837 12.1819 4.77422 12.0229 4.89143 11.9057C5.00864 11.7885 5.16761 11.7227 5.33337 11.7227H6.58337C6.74913 11.7227 6.90811 11.7885 7.02532 11.9057C7.14253 12.0229 7.20837 12.1819 7.20837 12.3477C7.20837 12.5134 7.14253 12.6724 7.02532 12.7896C6.90811 12.9068 6.74913 12.9727 6.58337 12.9727H5.33337C5.16761 12.9727 5.00864 12.9068 4.89143 12.7896C4.77422 12.6724 4.70837 12.5134 4.70837 12.3477ZM13.4584 12.3477C13.4584 12.1819 13.5242 12.0229 13.6414 11.9057C13.7586 11.7885 13.9176 11.7227 14.0834 11.7227H15.3334C15.4991 11.7227 15.6581 11.7885 15.7753 11.9057C15.8925 12.0229 15.9584 12.1819 15.9584 12.3477C15.9584 12.5134 15.8925 12.6724 15.7753 12.7896C15.6581 12.9068 15.4991 12.9727 15.3334 12.9727H14.0834C13.9176 12.9727 13.7586 12.9068 13.6414 12.7896C13.5242 12.6724 13.4584 12.5134 13.4584 12.3477Z" fill="black"/>
</g>
<defs>
<clipPath id="clip0_4483_15451">
<rect width="20" height="20" fill="white" transform="translate(0.333374 0.472656)"/>
</clipPath>
</defs>
</svg>
