<svg width="20" height="22" viewBox="0 0 20 22" fill="none" xmlns="http://www.w3.org/2000/svg">
<path d="M16.6666 10.9723H18.3333V12.7223H16.6666C15.5166 12.7223 14.3833 12.4161 13.3333 11.8473C11.25 12.9848 8.74996 12.9848 6.66663 11.8473C5.61663 12.4161 4.47496 12.7223 3.33329 12.7223H1.66663V10.9723H3.33329C4.49163 10.9723 5.64996 10.5611 6.66663 9.80859C8.69996 11.3048 11.3 11.3048 13.3333 9.80859C14.35 10.5611 15.5083 10.9723 16.6666 10.9723ZM16.6666 5.72234H18.3333V7.47234H16.6666C15.5166 7.47234 14.3833 7.16609 13.3333 6.59734C11.25 7.73484 8.74996 7.73484 6.66663 6.59734C5.61663 7.16609 4.47496 7.47234 3.33329 7.47234H1.66663V5.72234H3.33329C4.49163 5.72234 5.64996 5.31109 6.66663 4.55859C8.69996 6.05484 11.3 6.05484 13.3333 4.55859C14.35 5.31109 15.5083 5.72234 16.6666 5.72234ZM16.6666 16.2223H18.3333V17.9723H16.6666C15.5166 17.9723 14.3833 17.6661 13.3333 17.0973C11.25 18.2348 8.74996 18.2348 6.66663 17.0973C5.61663 17.6661 4.47496 17.9723 3.33329 17.9723H1.66663V16.2223H3.33329C4.49163 16.2223 5.64996 15.8111 6.66663 15.0586C8.69996 16.5548 11.3 16.5548 13.3333 15.0586C14.35 15.8111 15.5083 16.2223 16.6666 16.2223Z" fill="#171E1D"/>
</svg>
