<svg width="21" height="21" viewBox="0 0 21 21" fill="none" xmlns="http://www.w3.org/2000/svg">
<g clip-path="url(#clip0_4483_15463)">
<path d="M3.65832 8.16682H8.66499C9.10746 8.16682 9.53181 8.34259 9.84468 8.65547C10.1576 8.96834 10.3333 9.39269 10.3333 9.83516V18.1793C10.3333 18.6218 10.1576 19.0461 9.84468 19.359C9.53181 19.6719 9.10746 19.8477 8.66499 19.8477H3.65832C2.73666 19.8477 1.98999 19.101 1.98999 18.1793V9.83516C1.98999 9.39269 2.16576 8.96834 2.47863 8.65547C2.79151 8.34259 3.21585 8.16682 3.65832 8.16682ZM3.65832 8.16682H8.66666V6.31016C8.66655 6.22516 8.64969 6.14103 8.61703 6.06256C8.58438 5.98409 8.53658 5.91282 8.47637 5.85284C8.41615 5.79286 8.34471 5.74534 8.26611 5.71299C8.18752 5.68064 8.10332 5.6641 8.01832 5.66432H4.30499C4.13363 5.66432 3.96927 5.73234 3.84802 5.85343C3.72677 5.97453 3.65854 6.13879 3.65832 6.31016V8.16682ZM12 2.76599L11.6275 2.02016C11.4892 1.74307 11.2765 1.50999 11.0132 1.34705C10.7498 1.1841 10.4463 1.09774 10.1367 1.09766H2.82416M6.16166 12.3385V15.676M4.49332 14.0077H7.82999M6.16166 1.09766V5.66432M18.6767 12.756C18.6767 13.5304 18.369 14.2731 17.8214 14.8207C17.2738 15.3683 16.5311 15.676 15.7567 15.676C14.9822 15.676 14.2395 15.3683 13.6919 14.8207C13.1443 14.2731 12.8367 13.5304 12.8367 12.756C12.8367 10.566 15.7533 6.91516 15.7533 6.91516C15.7533 6.91516 18.6767 10.566 18.6767 12.756Z" stroke="#171E1D" stroke-width="1.5" stroke-linecap="round" stroke-linejoin="round"/>
</g>
<defs>
<clipPath id="clip0_4483_15463">
<rect width="20" height="20" fill="white" transform="translate(0.333374 0.472656)"/>
</clipPath>
</defs>
</svg>
