<svg width="20" height="21" viewBox="0 0 20 21" fill="none" xmlns="http://www.w3.org/2000/svg">
<path d="M11.7291 17.3477C11.5763 17.5282 11.3855 17.629 11.1566 17.6502C10.9277 17.6713 10.7227 17.6052 10.5416 17.4518L7.35413 14.7852C6.65968 14.2018 6.15968 13.4935 5.85413 12.6602C5.54857 11.8268 5.47218 10.9727 5.62496 10.0977L4.45829 9.11849C4.29163 8.96571 4.19801 8.78154 4.17746 8.56599C4.1569 8.35043 4.21551 8.15266 4.35329 7.97266H3.33329V9.63932C3.33329 10.0977 3.16996 10.4902 2.84329 10.8168C2.51663 11.1435 2.1244 11.3065 1.66663 11.306V2.97266C2.12496 2.97266 2.51746 3.13599 2.84413 3.46266C3.17079 3.78932 3.33385 4.18155 3.33329 4.63932V6.30599H5.72913L7.02079 4.74349C7.17357 4.56293 7.36468 4.4621 7.59413 4.44099C7.82357 4.41988 8.02829 4.48599 8.20829 4.63932L9.35413 5.59766C10.2013 5.27821 11.0625 5.19488 11.9375 5.34766C12.8125 5.50043 13.5972 5.86849 14.2916 6.45182L17.4791 9.11849C17.6597 9.27127 17.7605 9.46238 17.7816 9.69182C17.8027 9.92127 17.7366 10.119 17.5833 10.2852L11.7291 17.3477ZM10.9791 15.6185L15.7916 9.84766L13.2083 7.72266C12.625 7.25043 11.9619 7.02127 11.2191 7.03516C10.4763 7.04905 9.75051 7.20182 9.04163 7.49349L7.77079 6.45182L6.16663 8.36849L7.41663 9.41016C7.24996 10.1602 7.22913 10.9068 7.35413 11.6502C7.47913 12.3935 7.83329 13.0079 8.41663 13.4935L10.9791 15.6185Z" fill="#171E1D"/>
</svg>
