<svg width="20" height="21" viewBox="0 0 20 21" fill="none" xmlns="http://www.w3.org/2000/svg">
<path d="M13.541 12.3595C12.5686 11.4951 11.3127 11.0176 10.0115 11.0176C8.71039 11.0176 7.4545 11.4951 6.48203 12.3595C6.39986 12.4306 6.33263 12.5173 6.28426 12.6146C6.23588 12.712 6.20732 12.8179 6.20023 12.9263C6.19315 13.0348 6.20767 13.1435 6.24297 13.2463C6.27827 13.3491 6.33363 13.4438 6.40585 13.525C6.47807 13.6062 6.5657 13.6722 6.66365 13.7193C6.76161 13.7663 6.86793 13.7934 6.97645 13.7991C7.08497 13.8047 7.19353 13.7887 7.29581 13.752C7.39809 13.7153 7.49206 13.6586 7.57227 13.5853C8.24438 12.988 9.11233 12.658 10.0115 12.658C10.9107 12.658 11.7787 12.988 12.4508 13.5853C12.6134 13.7299 12.8269 13.8039 13.0441 13.7911C13.2613 13.7783 13.4646 13.6798 13.6092 13.5171C13.7538 13.3545 13.8278 13.1411 13.815 12.9238C13.8022 12.7066 13.7037 12.5033 13.541 12.3587V12.3595Z" fill="#171E1D"/>
<path d="M10.0109 7.64845C7.80846 7.64541 5.68777 8.48251 4.08121 9.98907C3.99987 10.0619 3.9339 10.1503 3.88716 10.249C3.84042 10.3477 3.81386 10.4547 3.80903 10.5638C3.8042 10.6729 3.82121 10.7819 3.85904 10.8843C3.89688 10.9868 3.95479 11.0806 4.02938 11.1604C4.10397 11.2401 4.19373 11.3042 4.2934 11.3488C4.39308 11.3934 4.50065 11.4177 4.60983 11.4202C4.719 11.4227 4.82758 11.4033 4.92918 11.3633C5.03079 11.3233 5.12338 11.2634 5.20153 11.1871C6.50601 9.96753 8.22511 9.28908 10.0109 9.28908C11.7967 9.28908 13.5158 9.96753 14.8203 11.1871C14.8984 11.2634 14.991 11.3233 15.0926 11.3633C15.1942 11.4033 15.3028 11.4227 15.412 11.4202C15.5211 11.4177 15.6287 11.3934 15.7284 11.3488C15.8281 11.3042 15.9178 11.2401 15.9924 11.1604C16.067 11.0806 16.1249 10.9868 16.1628 10.8843C16.2006 10.7819 16.2176 10.6729 16.2128 10.5638C16.2079 10.4547 16.1814 10.3477 16.1346 10.249C16.0879 10.1503 16.0219 10.0619 15.9406 9.98907C14.334 8.48251 12.2133 7.64541 10.0109 7.64845Z" fill="#171E1D"/>
<path d="M18.0469 7.34316C15.8353 5.36986 12.9749 4.2793 10.011 4.2793C7.04699 4.2793 4.18663 5.36986 1.97502 7.34316C1.8919 7.41416 1.82381 7.50106 1.77475 7.59874C1.72569 7.69643 1.69665 7.80294 1.68934 7.91201C1.68202 8.02108 1.69659 8.13051 1.73216 8.23388C1.76774 8.33724 1.82362 8.43245 1.89652 8.51391C1.96941 8.59537 2.05786 8.66144 2.15665 8.70824C2.25544 8.75504 2.36259 8.78161 2.4718 8.78641C2.58101 8.79121 2.69008 8.77414 2.79259 8.73619C2.89511 8.69824 2.98901 8.64018 3.06877 8.56542C4.97956 6.86127 7.45044 5.91951 10.0108 5.91951C12.5711 5.91951 15.042 6.86127 16.9528 8.56542C17.1149 8.71046 17.3281 8.78514 17.5453 8.77301C17.7626 8.76089 17.9661 8.66296 18.1111 8.50078C18.2562 8.33859 18.3309 8.12543 18.3187 7.90819C18.3066 7.69095 18.2087 7.48742 18.0465 7.34238L18.0469 7.34316Z" fill="#171E1D"/>
<path d="M10.011 17.0898C10.7013 17.0898 11.261 16.5302 11.261 15.8398C11.261 15.1495 10.7013 14.5898 10.011 14.5898C9.32063 14.5898 8.76099 15.1495 8.76099 15.8398C8.76099 16.5302 9.32063 17.0898 10.011 17.0898Z" fill="#171E1D"/>
</svg>
