<svg width="21" height="21" viewBox="0 0 21 21" fill="none" xmlns="http://www.w3.org/2000/svg">
<path d="M5.66665 12.1387H7.33331L9.83331 14.6387H8.16665L5.66665 12.1387ZM3.99998 3.80534H4.83331V2.97201C4.83331 2.75099 4.92111 2.53903 5.07739 2.38275C5.23367 2.22647 5.44563 2.13867 5.66665 2.13867H8.99998C9.22099 2.13867 9.43295 2.22647 9.58923 2.38275C9.74552 2.53903 9.83331 2.75099 9.83331 2.97201V3.80534H11.5V2.97201C11.5 2.75099 11.5878 2.53903 11.7441 2.38275C11.9003 2.22647 12.1123 2.13867 12.3333 2.13867H15.6666C15.8877 2.13867 16.0996 2.22647 16.2559 2.38275C16.4122 2.53903 16.5 2.75099 16.5 2.97201V3.80534H17.3333C17.7753 3.80534 18.1993 3.98093 18.5118 4.29349C18.8244 4.60605 19 5.02998 19 5.47201V16.3053C19 16.7474 18.8244 17.1713 18.5118 17.4838C18.1993 17.7964 17.7753 17.972 17.3333 17.972V18.8053H14.8333V17.972H6.49998V18.8053H3.99998V17.972C3.55795 17.972 3.13403 17.7964 2.82147 17.4838C2.50891 17.1713 2.33331 16.7474 2.33331 16.3053V5.47201C2.33331 5.02998 2.50891 4.60605 2.82147 4.29349C3.13403 3.98093 3.55795 3.80534 3.99998 3.80534ZM15.6666 6.30534C15.8877 6.30534 16.0996 6.39314 16.2559 6.54942C16.4122 6.7057 16.5 6.91766 16.5 7.13867C16.5 7.35969 16.4122 7.57165 16.2559 7.72793C16.0996 7.88421 15.8877 7.972 15.6666 7.972C15.4456 7.972 15.2337 7.88421 15.0774 7.72793C14.9211 7.57165 14.8333 7.35969 14.8333 7.13867C14.8333 6.91766 14.9211 6.7057 15.0774 6.54942C15.2337 6.39314 15.4456 6.30534 15.6666 6.30534ZM12.3333 6.30534C12.5543 6.30534 12.7663 6.39314 12.9226 6.54942C13.0788 6.7057 13.1666 6.91766 13.1666 7.13867C13.1666 7.35969 13.0788 7.57165 12.9226 7.72793C12.7663 7.88421 12.5543 7.972 12.3333 7.972C12.1123 7.972 11.9003 7.88421 11.7441 7.72793C11.5878 7.57165 11.5 7.35969 11.5 7.13867C11.5 6.91766 11.5878 6.7057 11.7441 6.54942C11.9003 6.39314 12.1123 6.30534 12.3333 6.30534ZM17.3333 5.47201H3.99998V8.80534H17.3333V5.47201ZM3.99998 16.3053H17.3333V10.472H3.99998V16.3053ZM5.66665 6.30534C5.88766 6.30534 6.09962 6.39314 6.2559 6.54942C6.41218 6.7057 6.49998 6.91766 6.49998 7.13867C6.49998 7.35969 6.41218 7.57165 6.2559 7.72793C6.09962 7.88421 5.88766 7.972 5.66665 7.972C5.44563 7.972 5.23367 7.88421 5.07739 7.72793C4.92111 7.57165 4.83331 7.35969 4.83331 7.13867C4.83331 6.91766 4.92111 6.7057 5.07739 6.54942C5.23367 6.39314 5.44563 6.30534 5.66665 6.30534ZM11.5 12.1387H13.1666L15.6666 14.6387H14L11.5 12.1387Z" fill="#171E1D"/>
</svg>
