<svg width="21" height="21" viewBox="0 0 21 21" fill="none" xmlns="http://www.w3.org/2000/svg">
<path d="M5.66661 18.8053C5.20827 18.8053 4.81577 18.642 4.48911 18.3153C4.16244 17.9887 3.99938 17.5965 3.99994 17.1387V3.80534C3.99994 3.34701 4.16327 2.95451 4.48994 2.62784C4.81661 2.30117 5.20883 2.13812 5.66661 2.13867H17.3333V3.80534H15.6666V5.47201C15.6666 5.70812 15.5866 5.90617 15.4266 6.06617C15.2666 6.22617 15.0688 6.3059 14.8333 6.30534H8.16661C7.9305 6.30534 7.73244 6.22534 7.57244 6.06534C7.41244 5.90534 7.33272 5.70756 7.33327 5.47201V3.80534H5.66661V17.1387H9.04161C8.51383 16.7637 8.09716 16.2878 7.79161 15.7112C7.48605 15.1345 7.33327 14.4992 7.33327 13.8053V9.63867H15.6666V13.8053C15.6666 14.4998 15.5138 15.1353 15.2083 15.712C14.9027 16.2887 14.4861 16.7642 13.9583 17.1387H17.3333V18.8053H5.66661ZM11.4999 16.3053C12.1944 16.3053 12.7847 16.0623 13.2708 15.5762C13.7569 15.0901 13.9999 14.4998 13.9999 13.8053V11.3053H8.99994V13.8053C8.99994 14.4998 9.243 15.0901 9.72911 15.5762C10.2152 16.0623 10.8055 16.3053 11.4999 16.3053ZM11.4999 8.80534C11.7361 8.80534 11.9341 8.72534 12.0941 8.56534C12.2541 8.40534 12.3338 8.20756 12.3333 7.97201C12.3333 7.7359 12.2533 7.53784 12.0933 7.37784C11.9333 7.21784 11.7355 7.13812 11.4999 7.13867C11.2638 7.13867 11.0658 7.21867 10.9058 7.37867C10.7458 7.53867 10.6661 7.73645 10.6666 7.97201C10.6666 8.20812 10.7466 8.40617 10.9066 8.56617C11.0666 8.72617 11.2644 8.8059 11.4999 8.80534Z" fill="#171E1D"/>
</svg>
