<svg width="21" height="21" viewBox="0 0 21 21" fill="none" xmlns="http://www.w3.org/2000/svg">
<g clip-path="url(#clip0_4483_15455)">
<path d="M9.73966 11.9495L8.80798 12.8812L9.73767 14.7406L10.6524 13.775L9.73966 11.9495ZM10.3325 15.9302L11.2036 17.6724L12.1183 16.7068L11.2472 14.9647L10.3325 15.9302ZM17.4789 8.38678L16.5756 9.34037L18.3108 10.1703L19.2142 9.2167L17.4789 8.38678ZM13.7163 7.97287L15.3906 8.77361L16.294 7.82006L14.6536 7.03553L13.7163 7.97287ZM12.3562 13.794L13.4704 15.2796L14.3425 14.3591L13.2283 12.8735L12.3562 13.794ZM12.4675 11.8591L11.3372 10.352L10.4443 11.2449L11.5954 12.7796L12.4675 11.8591ZM12.0811 9.60803L13.5141 10.7544L14.3768 9.84373L12.9705 8.71869L12.0811 9.60803ZM14.4936 11.538L15.928 12.6855L16.7907 11.7749L15.3563 10.6274L14.4936 11.538ZM13.954 4.40502L12.929 5.42998L11.9634 4.46444C11.5586 4.0596 11.078 3.73846 10.549 3.51936C10.0201 3.30027 9.45315 3.1875 8.88062 3.1875C8.30809 3.1875 7.74117 3.30027 7.21222 3.51936C6.68328 3.73846 6.20267 4.0596 5.79783 4.46444C5.78447 4.47776 5.77154 4.49135 5.75841 4.50483C5.30228 4.18348 4.76664 3.99361 4.20996 3.95592C3.65327 3.91824 3.09693 4.03419 2.60165 4.29112C2.10637 4.54805 1.69118 4.9361 1.4014 5.4129C1.11161 5.8897 0.95836 6.43695 0.958374 6.9949V16.4094H2.20837V6.9949C2.20837 6.66756 2.29783 6.34644 2.46709 6.06625C2.63635 5.78606 2.87898 5.55746 3.16874 5.40516C3.4585 5.25287 3.78437 5.18266 4.11114 5.20214C4.43791 5.22162 4.75313 5.33004 5.02275 5.51568C4.5903 6.33956 4.43227 7.28001 4.57169 8.19998C4.7111 9.11995 5.14069 9.97135 5.79783 10.6301L6.76333 11.5956L5.82896 12.53L6.61021 13.3113L14.7352 5.18627L13.954 4.40502ZM7.56017 10.6247L6.68169 9.74623C6.10416 9.16187 5.78134 8.37271 5.78375 7.55112C5.78616 6.72953 6.11359 5.94227 6.69454 5.3613C7.27549 4.78034 8.06273 4.45287 8.88432 4.45044C9.70591 4.448 10.4951 4.77079 11.0795 5.3483L11.9579 6.22682L7.56017 10.6247Z" fill="black"/>
</g>
<defs>
<clipPath id="clip0_4483_15455">
<rect width="20" height="20" fill="white" transform="translate(0.333374 0.472656)"/>
</clipPath>
</defs>
</svg>
