<svg width="20" height="21" viewBox="0 0 20 21" fill="none" xmlns="http://www.w3.org/2000/svg">
<path d="M1.66663 3.472C1.66663 3.00529 1.66663 2.77194 1.75745 2.59368C1.83735 2.43688 1.96483 2.30939 2.12163 2.2295C2.29989 2.13867 2.53325 2.13867 2.99996 2.13867H6.99996C7.46667 2.13867 7.70002 2.13867 7.87828 2.2295C8.03509 2.30939 8.16257 2.43688 8.24246 2.59368C8.33329 2.77194 8.33329 3.00529 8.33329 3.47201V7.472C8.33329 7.93871 8.33329 8.17207 8.24246 8.35033C8.16257 8.50713 8.03509 8.63462 7.87828 8.71451C7.70002 8.80534 7.46667 8.80534 6.99996 8.80534H2.99996C2.53325 8.80534 2.29989 8.80534 2.12163 8.71451C1.96483 8.63462 1.83735 8.50713 1.75745 8.35033C1.66663 8.17207 1.66663 7.93871 1.66663 7.472V3.472Z" stroke="white" stroke-width="1.5"/>
<path d="M1.66663 13.472C1.66663 13.0053 1.66663 12.7719 1.75745 12.5937C1.83735 12.4369 1.96483 12.3094 2.12163 12.2295C2.29989 12.1387 2.53325 12.1387 2.99996 12.1387H6.99996C7.46667 12.1387 7.70002 12.1387 7.87828 12.2295C8.03509 12.3094 8.16257 12.4369 8.24246 12.5937C8.33329 12.7719 8.33329 13.0053 8.33329 13.472V17.472C8.33329 17.9387 8.33329 18.1721 8.24246 18.3503C8.16257 18.5071 8.03509 18.6346 7.87828 18.7145C7.70002 18.8053 7.46667 18.8053 6.99996 18.8053H2.99996C2.53325 18.8053 2.29989 18.8053 2.12163 18.7145C1.96483 18.6346 1.83735 18.5071 1.75745 18.3503C1.66663 18.1721 1.66663 17.9387 1.66663 17.472V13.472Z" stroke="white" stroke-width="1.5"/>
<path d="M11.6666 3.472C11.6666 3.00529 11.6666 2.77194 11.7575 2.59368C11.8373 2.43688 11.9648 2.30939 12.1216 2.2295C12.2999 2.13867 12.5332 2.13867 13 2.13867H17C17.4667 2.13867 17.7 2.13867 17.8783 2.2295C18.0351 2.30939 18.1626 2.43688 18.2425 2.59368C18.3333 2.77194 18.3333 3.00529 18.3333 3.47201V7.472C18.3333 7.93871 18.3333 8.17207 18.2425 8.35033C18.1626 8.50713 18.0351 8.63462 17.8783 8.71451C17.7 8.80534 17.4667 8.80534 17 8.80534H13C12.5332 8.80534 12.2999 8.80534 12.1216 8.71451C11.9648 8.63462 11.8373 8.50713 11.7575 8.35033C11.6666 8.17207 11.6666 7.93871 11.6666 7.472V3.472Z" stroke="white" stroke-width="1.5"/>
<path d="M11.6666 13.472C11.6666 13.0053 11.6666 12.7719 11.7575 12.5937C11.8373 12.4369 11.9648 12.3094 12.1216 12.2295C12.2999 12.1387 12.5332 12.1387 13 12.1387H17C17.4667 12.1387 17.7 12.1387 17.8783 12.2295C18.0351 12.3094 18.1626 12.4369 18.2425 12.5937C18.3333 12.7719 18.3333 13.0053 18.3333 13.472V17.472C18.3333 17.9387 18.3333 18.1721 18.2425 18.3503C18.1626 18.5071 18.0351 18.6346 17.8783 18.7145C17.7 18.8053 17.4667 18.8053 17 18.8053H13C12.5332 18.8053 12.2999 18.8053 12.1216 18.7145C11.9648 18.6346 11.8373 18.5071 11.7575 18.3503C11.6666 18.1721 11.6666 17.9387 11.6666 17.472V13.472Z" stroke="white" stroke-width="1.5"/>
</svg>
