<svg width="60" height="61" viewBox="0 0 60 61" fill="none" xmlns="http://www.w3.org/2000/svg">
<rect y="0.472656" width="60" height="60" rx="8" fill="#DDF4F0"/>
<path d="M19.25 18.4727C18.388 18.4727 17.5614 18.8151 16.9519 19.4246C16.3424 20.0341 16 20.8607 16 21.7227V37.9727C16 39.1661 16.4741 40.3107 17.318 41.1546C18.1619 41.9986 19.3065 42.4727 20.5 42.4727H25.5C26.6935 42.4727 27.8381 41.9986 28.682 41.1546C29.5259 40.3107 30 39.1661 30 37.9727V26.4727H42V41.4727C42 41.7379 42.1054 41.9922 42.2929 42.1798C42.4804 42.3673 42.7348 42.4727 43 42.4727C43.2652 42.4727 43.5196 42.3673 43.7071 42.1798C43.8946 41.9922 44 41.7379 44 41.4727V21.7227C44 20.8607 43.6576 20.0341 43.0481 19.4246C42.4386 18.8151 41.612 18.4727 40.75 18.4727H19.25ZM18 26.4727H28V37.9727C28 38.6357 27.7366 39.2716 27.2678 39.7404C26.7989 40.2093 26.163 40.4727 25.5 40.4727H20.5C19.837 40.4727 19.2011 40.2093 18.7322 39.7404C18.2634 39.2716 18 38.6357 18 37.9727V26.4727ZM18 24.4727V21.7227C18 21.0327 18.56 20.4727 19.25 20.4727H40.75C41.44 20.4727 42 21.0327 42 21.7227V24.4727H18ZM21 29.4727C20.7348 29.4727 20.4804 29.578 20.2929 29.7655C20.1054 29.9531 20 30.2074 20 30.4727C20 30.7379 20.1054 30.9922 20.2929 31.1798C20.4804 31.3673 20.7348 31.4727 21 31.4727H25C25.2652 31.4727 25.5196 31.3673 25.7071 31.1798C25.8946 30.9922 26 30.7379 26 30.4727C26 30.2074 25.8946 29.9531 25.7071 29.7655C25.5196 29.578 25.2652 29.4727 25 29.4727H21Z" fill="#00C29F"/>
</svg>
