<svg width="60" height="61" viewBox="0 0 60 61" fill="none" xmlns="http://www.w3.org/2000/svg">
<rect y="0.472656" width="60" height="60" rx="8" fill="#DDF4F0"/>
<path d="M30.0003 42.1743H20.3629C19.6326 42.1743 18.9323 41.8842 18.4159 41.3679C17.8995 40.8515 17.6094 40.1511 17.6094 39.4208V22.8996C17.6094 22.1694 17.8995 21.469 18.4159 20.9526C18.9323 20.4362 19.6326 20.1461 20.3629 20.1461H36.8841C37.6144 20.1461 38.3147 20.4362 38.8311 20.9526C39.3475 21.469 39.6376 22.1694 39.6376 22.8996V31.8486M34.1306 17.3926V22.8996M23.1164 17.3926V22.8996M17.6094 28.4067H39.6376M42.3911 43.5511L35.5073 36.6673M35.5073 43.5511L42.3911 36.6673" stroke="#00C29F" stroke-width="2" stroke-linecap="round" stroke-linejoin="round"/>
</svg>
