<svg width="60" height="61" viewBox="0 0 60 61" fill="none" xmlns="http://www.w3.org/2000/svg">
<rect y="0.472656" width="60" height="60" rx="8" fill="#DDF4F0"/>
<path d="M41.9998 32.3184L34.3936 42.4722L29.3167 38.6691" stroke="#00C29F" stroke-width="2" stroke-linecap="round" stroke-linejoin="round"/>
<path d="M26.3077 26.7803C28.6018 26.7803 30.4616 24.9206 30.4616 22.6265C30.4616 20.3324 28.6018 18.4727 26.3077 18.4727C24.0136 18.4727 22.1539 20.3324 22.1539 22.6265C22.1539 24.9206 24.0136 26.7803 26.3077 26.7803Z" stroke="#00C29F" stroke-width="2" stroke-linecap="round" stroke-linejoin="round"/>
<path d="M22.6154 40.6263H18V37.857C18.0014 36.215 18.4895 34.6102 19.4024 33.2453C20.3154 31.8805 21.6123 30.8168 23.1295 30.1886C24.6466 29.5604 26.3159 29.3959 27.9264 29.7159C29.537 30.0358 31.0166 30.8259 32.1785 31.9863" stroke="#00C29F" stroke-width="2" stroke-linecap="round" stroke-linejoin="round"/>
</svg>
