<svg width="36" height="37" viewBox="0 0 36 37" fill="none" xmlns="http://www.w3.org/2000/svg">
<circle cx="18" cy="18.9727" r="17.5" fill="white" stroke="#E8ECF2"/>
<path fill-rule="evenodd" clip-rule="evenodd" d="M17.9945 14.0979C16.3417 12.1718 13.5856 11.6536 11.5148 13.4174C9.44402 15.1811 9.15248 18.13 10.7787 20.216C12.1308 21.9503 16.2226 25.6082 17.5637 26.7921C17.7138 26.9246 17.7888 26.9908 17.8763 27.0168C17.9527 27.0395 18.0362 27.0395 18.1126 27.0168C18.2001 26.9908 18.2751 26.9246 18.4252 26.7921C19.7663 25.6082 23.8581 21.9503 25.2102 20.216C26.8364 18.13 26.5805 15.1626 24.4741 13.4174C22.3677 11.6722 19.6472 12.1718 17.9945 14.0979Z" stroke="#171E1D" stroke-width="1.5" stroke-linecap="round" stroke-linejoin="round"/>
</svg>
