<svg width="21" height="21" viewBox="0 0 21 21" fill="none" xmlns="http://www.w3.org/2000/svg">
<path d="M10.151 0.601562C7.41363 0.601562 5.18662 2.82857 5.18662 5.56591V8.54453H4.19375C3.09861 8.54453 2.20801 9.43513 2.20801 10.5303V18.4732C2.20801 19.5684 3.09861 20.459 4.19375 20.459H16.1082C17.2033 20.459 18.0939 19.5684 18.0939 18.4732V10.5303C18.0939 9.43513 17.2033 8.54453 16.1082 8.54453H15.1153V5.56591C15.1153 2.82857 12.8883 0.601562 10.151 0.601562ZM16.1082 10.5303L16.1102 18.4732H4.19375V10.5303H16.1082ZM7.17236 8.54453V5.56591C7.17236 3.92371 8.50876 2.5873 10.151 2.5873C11.7932 2.5873 13.1296 3.92371 13.1296 5.56591V8.54453H7.17236Z" fill="#787878"/>
</svg>
