<svg width="21" height="21" viewBox="0 0 21 21" fill="none" xmlns="http://www.w3.org/2000/svg">
<path d="M10.151 0.894531C7.41363 0.894531 5.18662 3.12154 5.18662 5.85888V8.83749H4.19375C3.09861 8.83749 2.20801 9.7281 2.20801 10.8232V18.7662C2.20801 19.8613 3.09861 20.7519 4.19375 20.7519H16.1082C17.2033 20.7519 18.0939 19.8613 18.0939 18.7662V10.8232C18.0939 9.7281 17.2033 8.83749 16.1082 8.83749H15.1153V5.85888C15.1153 3.12154 12.8883 0.894531 10.151 0.894531ZM16.1082 10.8232L16.1102 18.7662H4.19375V10.8232H16.1082ZM7.17236 8.83749V5.85888C7.17236 4.21668 8.50876 2.88027 10.151 2.88027C11.7932 2.88027 13.1296 4.21668 13.1296 5.85888V8.83749H7.17236Z" fill="#787878"/>
</svg>
