<svg width="21" height="21" viewBox="0 0 21 21" fill="none" xmlns="http://www.w3.org/2000/svg">
<path d="M19.3566 17.265C18.8826 16.1423 18.1948 15.1225 17.3315 14.2625C16.4707 13.3999 15.4511 12.7122 14.3289 12.2373C14.3189 12.2323 14.3088 12.2298 14.2988 12.2248C15.8641 11.0941 16.8817 9.2524 16.8817 7.17452C16.8817 3.7323 14.0928 0.943359 10.6505 0.943359C7.20833 0.943359 4.41939 3.7323 4.41939 7.17452C4.41939 9.2524 5.43698 11.0941 7.0023 12.2273C6.99225 12.2323 6.9822 12.2348 6.97215 12.2398C5.84653 12.7147 4.83648 13.3956 3.96964 14.265C3.1071 15.1257 2.4194 16.1453 1.94452 17.2675C1.47799 18.3661 1.22638 19.544 1.20331 20.7373C1.20264 20.7641 1.20734 20.7908 1.21714 20.8158C1.22694 20.8408 1.24164 20.8635 1.26038 20.8827C1.27911 20.9019 1.30149 20.9172 1.32621 20.9276C1.35094 20.938 1.37749 20.9434 1.40431 20.9434H2.91185C3.02241 20.9434 3.11035 20.8554 3.11286 20.7474C3.16311 18.8077 3.942 16.9911 5.31889 15.6142C6.74351 14.1896 8.63547 13.4057 10.6505 13.4057C12.6656 13.4057 14.5576 14.1896 15.9822 15.6142C17.3591 16.9911 18.138 18.8077 18.1882 20.7474C18.1907 20.8579 18.2787 20.9434 18.3892 20.9434H19.8968C19.9236 20.9434 19.9502 20.938 19.9749 20.9276C19.9996 20.9172 20.022 20.9019 20.0407 20.8827C20.0594 20.8635 20.0741 20.8408 20.0839 20.8158C20.0938 20.7908 20.0985 20.7641 20.0978 20.7373C20.0727 19.5363 19.8239 18.368 19.3566 17.265ZM10.6505 11.4961C9.49728 11.4961 8.41185 11.0464 7.59527 10.2298C6.77869 9.41321 6.32894 8.32778 6.32894 7.17452C6.32894 6.02125 6.77869 4.93582 7.59527 4.11924C8.41185 3.30266 9.49728 2.85291 10.6505 2.85291C11.8038 2.85291 12.8892 3.30266 13.7058 4.11924C14.5224 4.93582 14.9722 6.02125 14.9722 7.17452C14.9722 8.32778 14.5224 9.41321 13.7058 10.2298C12.8892 11.0464 11.8038 11.4961 10.6505 11.4961Z" fill="#787878"/>
</svg>
