<svg width="21" height="21" viewBox="0 0 21 21" fill="none" xmlns="http://www.w3.org/2000/svg">
<path d="M10.651 0.720703C7.91363 0.720703 5.68662 2.94771 5.68662 5.68505V8.66367H4.69375C3.59861 8.66367 2.70801 9.55427 2.70801 10.6494V18.5924C2.70801 19.6875 3.59861 20.5781 4.69375 20.5781H16.6082C17.7033 20.5781 18.5939 19.6875 18.5939 18.5924V10.6494C18.5939 9.55427 17.7033 8.66367 16.6082 8.66367H15.6153V5.68505C15.6153 2.94771 13.3883 0.720703 10.651 0.720703ZM16.6082 10.6494L16.6102 18.5924H4.69375V10.6494H16.6082ZM7.67236 8.66367V5.68505C7.67236 4.04285 9.00876 2.70644 10.651 2.70644C12.2932 2.70644 13.6296 4.04285 13.6296 5.68505V8.66367H7.67236Z" fill="#787878"/>
</svg>
