<svg width="19" height="20" viewBox="0 0 19 20" fill="none" xmlns="http://www.w3.org/2000/svg">
<g clip-path="url(#clip0_30_330)">
<path d="M16.4338 19.1747C16.922 19.6628 17.7134 19.6628 18.2016 19.1747C18.6898 18.6865 18.6898 17.8951 18.2016 17.4069L16.4338 19.1747ZM13.3085 9.09339C13.3085 11.9587 10.9857 14.2816 8.12031 14.2816V16.7816C12.3664 16.7816 15.8085 13.3395 15.8085 9.09339H13.3085ZM8.12031 14.2816C5.25496 14.2816 2.93213 11.9587 2.93213 9.09339H0.432129C0.432129 13.3395 3.87425 16.7816 8.12031 16.7816V14.2816ZM2.93213 9.09339C2.93213 6.22804 5.25496 3.90521 8.12031 3.90521V1.40521C3.87425 1.40521 0.432129 4.84733 0.432129 9.09339H2.93213ZM8.12031 3.90521C10.9857 3.90521 13.3085 6.22804 13.3085 9.09339H15.8085C15.8085 4.84733 12.3664 1.40521 8.12031 1.40521V3.90521ZM11.8351 14.576L16.4338 19.1747L18.2016 17.4069L13.6029 12.8082L11.8351 14.576Z" fill="white"/>
</g>
<defs>
<clipPath id="clip0_30_330">
<rect width="19" height="19" fill="white" transform="translate(0 0.973022)"/>
</clipPath>
</defs>
</svg>
