<svg width="21" height="21" viewBox="0 0 21 21" fill="none" xmlns="http://www.w3.org/2000/svg">
<path d="M18.8566 16.4388C18.3826 15.3161 17.6948 14.2963 16.8315 13.4363C15.9707 12.5737 14.9511 11.886 13.8289 11.4112C13.8189 11.4061 13.8088 11.4036 13.7988 11.3986C15.3641 10.2679 16.3817 8.42623 16.3817 6.34834C16.3817 2.90613 13.5928 0.117188 10.1505 0.117188C6.70833 0.117188 3.91939 2.90613 3.91939 6.34834C3.91939 8.42623 4.93698 10.2679 6.5023 11.4011C6.49225 11.4061 6.4822 11.4086 6.47215 11.4137C5.34653 11.8885 4.33648 12.5694 3.46964 13.4388C2.6071 14.2995 1.9194 15.3191 1.44452 16.4413C0.977989 17.5399 0.72638 18.7178 0.70331 19.9112C0.702639 19.938 0.707343 19.9647 0.717144 19.9896C0.726944 20.0146 0.741644 20.0373 0.760376 20.0565C0.779108 20.0758 0.801494 20.091 0.826215 20.1014C0.850935 20.1118 0.87749 20.1172 0.904315 20.1172H2.41185C2.52241 20.1172 2.61035 20.0292 2.61286 19.9212C2.66311 17.9815 3.442 16.1649 4.81889 14.788C6.24351 13.3634 8.13547 12.5795 10.1505 12.5795C12.1656 12.5795 14.0576 13.3634 15.4822 14.788C16.8591 16.1649 17.638 17.9815 17.6882 19.9212C17.6907 20.0318 17.7787 20.1172 17.8892 20.1172H19.3968C19.4236 20.1172 19.4502 20.1118 19.4749 20.1014C19.4996 20.091 19.522 20.0758 19.5407 20.0565C19.5594 20.0373 19.5741 20.0146 19.5839 19.9896C19.5938 19.9647 19.5985 19.938 19.5978 19.9112C19.5727 18.7102 19.3239 17.5418 18.8566 16.4388ZM10.1505 10.67C8.99728 10.67 7.91185 10.2202 7.09527 9.40362C6.27869 8.58704 5.82894 7.50161 5.82894 6.34834C5.82894 5.19508 6.27869 4.10965 7.09527 3.29307C7.91185 2.47648 8.99728 2.02674 10.1505 2.02674C11.3038 2.02674 12.3892 2.47648 13.2058 3.29307C14.0224 4.10965 14.4722 5.19508 14.4722 6.34834C14.4722 7.50161 14.0224 8.58704 13.2058 9.40362C12.3892 10.2202 11.3038 10.67 10.1505 10.67Z" fill="#787878"/>
</svg>
