<svg width="20" height="21" viewBox="0 0 20 21" fill="none" xmlns="http://www.w3.org/2000/svg">
<path d="M7.5 7.13851V11.3052M12.5 9.63851V13.8052M3.86682 16.8327L6.43303 14.6942C7.0511 14.1792 7.9489 14.1792 8.56697 14.6942L11.433 17.0826C12.0511 17.5977 12.9489 17.5977 13.567 17.0826L16.9003 14.3048C17.2803 13.9882 17.5 13.5191 17.5 13.0245V4.75096C17.5 4.04443 16.676 3.65847 16.1332 4.11078L13.567 6.24929C12.9489 6.76435 12.0511 6.76435 11.433 6.24928L8.56697 3.86091C7.9489 3.34584 7.0511 3.34584 6.43303 3.86091L3.09969 6.63869C2.7197 6.95534 2.5 7.42442 2.5 7.91905V16.1926C2.5 16.8991 3.32405 17.2851 3.86682 16.8327Z" stroke="#171E1D" stroke-width="1.5" stroke-linecap="round"/>
</svg>
