<svg width="41" height="41" viewBox="0 0 41 41" fill="none" xmlns="http://www.w3.org/2000/svg">
<circle cx="31.751" cy="14.9453" r="9" fill="#FAC50A"/>
<path d="M37.3256 17.9477C35.6681 16.5359 33.5134 15.6324 31.193 15.6324C29.867 15.6324 28.5963 15.9147 27.3808 16.423L26.9941 16.5924L26.8283 16.1971C26.3311 15.0677 25.6129 14.1077 24.7289 13.2606C24.3421 12.9218 23.9554 12.6394 23.5687 12.3571C22.7952 11.8488 21.9112 11.4535 21.0272 11.2277C20.309 11.0583 19.5908 10.9453 18.8173 10.9453C14.4526 10.9453 10.751 14.1077 10.0327 18.5124L9.9775 18.9641L9.53551 18.9077C9.14877 18.8512 8.70678 18.7947 8.26479 18.7947C4.12114 18.7947 0.750977 22.2394 0.750977 26.4747C0.750977 28.8465 1.8007 31.0488 3.6239 32.5171L3.67915 32.5735C5.22611 34.0983 7.21507 34.9453 9.36976 34.9453H31.3035C33.1267 34.9453 34.9499 34.3806 36.4968 33.3641C39.1488 31.5571 40.751 28.5641 40.751 25.2888C40.6957 22.3524 39.3698 19.7547 37.3256 17.9477Z" fill="#F4F4F4"/>
</svg>
