<svg width="48" height="48" viewBox="0 0 48 48" fill="none" xmlns="http://www.w3.org/2000/svg">
<circle cx="37.1761" cy="17.3953" r="10.575" fill="#FAC50A"/>
<path d="M43.7261 20.9231C41.7786 19.2643 39.2468 18.2026 36.5203 18.2026C34.9623 18.2026 33.4692 18.5344 32.041 19.1315L31.5866 19.3306L31.3919 18.8661C30.8076 17.5391 29.9637 16.4111 28.925 15.4158C28.4706 15.0177 28.0162 14.6859 27.5618 14.3541C26.6529 13.757 25.6142 13.2925 24.5756 13.0271C23.7316 12.828 22.8877 12.6953 21.9789 12.6953C16.8504 12.6953 12.501 16.4111 11.6571 21.5866L11.5921 22.1174L11.0728 22.0511C10.6184 21.9847 10.099 21.9184 9.57971 21.9184C4.71092 21.9184 0.750977 25.9659 0.750977 30.9424C0.750977 33.7292 1.9844 36.317 4.12667 38.0421L4.19158 38.1085C6.00926 39.9 8.34628 40.8953 10.878 40.8953H36.6501C38.7924 40.8953 40.9347 40.2318 42.7524 39.0374C45.8684 36.9141 47.751 33.3974 47.751 29.549C47.6861 26.0986 46.128 23.0464 43.7261 20.9231Z" fill="#F4F4F4"/>
</svg>
