<svg width="8" height="11" viewBox="0 0 8 11" fill="none" xmlns="http://www.w3.org/2000/svg">
<path d="M5.47016 2.66506C5.38655 3.1029 4.96382 3.39006 4.52598 3.30645C4.08813 3.22283 3.80097 2.8001 3.88459 2.36226C3.9682 1.92441 4.39093 1.63725 4.82877 1.72087C5.26662 1.80448 5.55378 2.22721 5.47016 2.66506Z" fill="#00C29F"/>
<path d="M2.15038 9.90449C0.86874 9.45715 0.187645 8.05435 0.639926 6.75854C0.762926 6.40614 0.83941 6.20278 0.957491 5.8487C1.02228 5.65141 1.54826 4.76559 1.9038 4.5238C2.47415 4.13591 2.68871 4.10134 3.24036 4.00842C3.90469 3.8965 4.71574 4.1783 5.30436 3.92771C5.70805 3.75671 6.02305 3.42013 6.16826 3.00408C6.18211 2.96441 6.19371 2.92694 6.20342 2.88957C6.21027 2.86466 6.21612 2.8394 6.22165 2.81403C6.22729 2.78833 6.23228 2.76239 6.23649 2.73656C6.24616 2.67598 6.2524 2.61571 6.25508 2.55718C6.27846 2.03765 6.04419 1.54525 5.62863 1.24051C5.58212 1.20633 5.53182 1.17344 5.4786 1.14365C5.45604 1.13091 5.43292 1.11873 5.40957 1.10721C5.38655 1.09581 5.36341 1.08474 5.33959 1.07456C5.3047 1.05901 5.26857 1.04491 5.22966 1.03133C5.19075 1.01775 5.15336 1.00619 5.11637 0.996646C5.09172 0.989912 5.06672 0.984178 5.0416 0.978777C5.01615 0.973261 4.99047 0.968411 4.96489 0.964344C4.94559 0.961348 4.92618 0.958685 4.90742 0.956253C4.88867 0.953821 4.86968 0.952055 4.85123 0.950853C4.8329 0.949317 4.8149 0.947896 4.79689 0.947591C4.75976 0.945854 4.72549 0.945485 4.69219 0.946577C4.16885 0.959132 3.67488 1.24784 3.40387 1.70001L3.40329 1.70168L3.40238 1.70323C3.3959 1.71331 3.38849 1.72606 3.38073 1.73981C3.36795 1.76265 3.35572 1.78605 3.34414 1.80968C3.33268 1.83298 3.32154 1.8564 3.31129 1.88049C3.3076 1.88893 3.30403 1.89703 3.30068 1.90559C3.17481 2.05426 2.96804 2.11148 2.7857 2.04784C2.56577 1.97108 2.43663 1.74761 2.47812 1.51639C2.51191 1.43656 2.55066 1.35733 2.59266 1.28149L2.59584 1.27662C3.18503 0.222316 4.43199 -0.25684 5.55965 0.136752C6.17821 0.352652 6.67553 0.801482 6.96038 1.40017C7.24555 1.99897 7.28218 2.67296 7.06389 3.29836L5.29526 8.36558C4.84298 9.66139 3.43203 10.3518 2.15038 9.90449Z" fill="#00C29F"/>
</svg>
