<svg width="36" height="29" viewBox="0 0 36 29" fill="none" xmlns="http://www.w3.org/2000/svg">
<path d="M21.7208 3.90896C21.7208 3.44204 21.5353 2.99425 21.2051 2.66408C20.8749 2.33392 20.4272 2.14844 19.9602 2.14844H16.4392C15.9723 2.14844 15.5245 2.33392 15.1943 2.66408C14.8641 2.99425 14.6787 3.44204 14.6787 3.90896V14.4721C14.6787 14.939 14.8641 15.3868 15.1943 15.717C15.5245 16.0472 15.9723 16.2326 16.4392 16.2326H19.9602C20.4272 16.2326 20.8749 16.0472 21.2051 15.717C21.5353 15.3868 21.7208 14.939 21.7208 14.4721V10.9511C21.7208 10.4841 21.5353 10.0363 21.2051 9.70618C20.8749 9.37602 20.4272 9.19054 19.9602 9.19054H14.6787M2.35498 2.14844H6.75629C7.45667 2.14844 8.12837 2.42666 8.62361 2.92191C9.11886 3.41715 9.39708 4.08884 9.39708 4.78923V6.54975C9.39708 7.25013 9.11886 7.92183 8.62361 8.41707C8.12837 8.91231 7.45667 9.19054 6.75629 9.19054M6.75629 9.19054H4.11551M6.75629 9.19054C7.45667 9.19054 8.12837 9.46876 8.62361 9.96401C9.11886 10.4593 9.39708 11.1309 9.39708 11.8313V13.5919C9.39708 14.2922 9.11886 14.9639 8.62361 15.4592C8.12837 15.9544 7.45667 16.2326 6.75629 16.2326H2.35498M2.35498 21.5142C2.35498 24.4314 9.4499 26.7958 18.1997 26.7958C26.9495 26.7958 34.0444 24.4314 34.0444 21.5142M27.0023 5.66949V12.7116C27.0023 13.6454 27.3733 14.541 28.0336 15.2013C28.694 15.8617 29.5895 16.2326 30.5234 16.2326C31.4572 16.2326 32.3528 15.8617 33.0131 15.2013C33.6735 14.541 34.0444 13.6454 34.0444 12.7116V5.66949C34.0444 4.73565 33.6735 3.84005 33.0131 3.17973C32.3528 2.5194 31.4572 2.14844 30.5234 2.14844C29.5895 2.14844 28.694 2.5194 28.0336 3.17973C27.3733 3.84005 27.0023 4.73565 27.0023 5.66949Z" stroke="white" stroke-width="3.52105" stroke-linecap="round" stroke-linejoin="round"/>
</svg>
