<svg width="13" height="19" viewBox="0 0 13 19" fill="none" xmlns="http://www.w3.org/2000/svg">
<path d="M9.82925 5.16698C9.67639 5.96742 8.90359 6.49238 8.10316 6.33952C7.30272 6.18666 6.77776 5.41386 6.93062 4.61343C7.08348 3.81299 7.85627 3.28803 8.65671 3.44089C9.45715 3.59374 9.98211 4.36654 9.82925 5.16698Z" fill="#00C29F"/>
<path d="M3.76027 18.4016C1.41727 17.5838 0.17214 15.0193 0.998966 12.6504C1.22383 12.0061 1.36365 11.6344 1.57951 10.9871C1.69796 10.6264 2.65952 9.00703 3.30949 8.56499C4.35217 7.85589 4.74441 7.7927 5.75289 7.62281C6.96736 7.41822 8.45006 7.93338 9.52614 7.47528C10.2641 7.16267 10.84 6.54734 11.1055 5.78676C11.1308 5.71424 11.152 5.64575 11.1697 5.57742C11.1823 5.53188 11.193 5.48571 11.2031 5.43933C11.2134 5.39233 11.2225 5.34492 11.2302 5.2977C11.2479 5.18696 11.2593 5.07677 11.2642 4.96977C11.3069 4.02001 10.8786 3.11983 10.1189 2.56274C10.0339 2.50025 9.94197 2.44012 9.84468 2.38565C9.80344 2.36237 9.76117 2.3401 9.71848 2.31904C9.67639 2.2982 9.63409 2.27797 9.59055 2.25935C9.52676 2.23093 9.4607 2.20514 9.38958 2.18032C9.31845 2.15549 9.25009 2.13436 9.18247 2.11692C9.1374 2.10461 9.0917 2.09412 9.04578 2.08425C8.99926 2.07417 8.95231 2.0653 8.90555 2.05786C8.87027 2.05239 8.83477 2.04752 8.80049 2.04307C8.7662 2.03863 8.73149 2.0354 8.69777 2.0332C8.66426 2.03039 8.63135 2.0278 8.59841 2.02724C8.53055 2.02406 8.4679 2.02339 8.40702 2.02538C7.45028 2.04834 6.54725 2.57613 6.05181 3.40276L6.05074 3.40581L6.04908 3.40864C6.03723 3.42707 6.02369 3.45037 6.00951 3.47551C5.98614 3.51726 5.96377 3.56005 5.94261 3.60325C5.92165 3.64585 5.9013 3.68865 5.88255 3.7327C5.87581 3.74812 5.86929 3.76294 5.86316 3.77857C5.63305 4.05036 5.25505 4.15498 4.92171 4.03863C4.51966 3.8983 4.28357 3.48978 4.35942 3.06708C4.42118 2.92113 4.49202 2.7763 4.56882 2.63765L4.57463 2.62874C5.65173 0.701344 7.93134 -0.174613 9.99284 0.544921C11.1237 0.939614 12.0328 1.76013 12.5535 2.85461C13.0749 3.9493 13.1418 5.18143 12.7428 6.32474L9.50951 15.5883C8.68269 17.9572 6.10328 19.2194 3.76027 18.4016Z" fill="#00C29F"/>
</svg>
